<?xml version="1.0" encoding="UTF-8"?>
<svg version="1.1" xmlns="http://www.w3.org/2000/svg" width="2400" height="2400">
<path d="M0 0 C792 0 1584 0 2400 0 C2400 792 2400 1584 2400 2400 C1608 2400 816 2400 0 2400 C0 1608 0 816 0 0 Z " fill="#FFFFFF" transform="translate(0,0)"/>
<path d="M0 0 C1.39019801 0.06471767 2.78050277 0.12717775 4.17089844 0.1875 C78.85154278 3.45769319 152.84748265 21.11107675 212 69 C213.01191406 69.80695313 214.02382812 70.61390625 215.06640625 71.4453125 C223.34040626 78.20403436 230.88867348 85.70502806 238.4375 93.25 C238.95800934 93.76951233 239.47851868 94.28902466 240.01480103 94.82427979 C245.89245533 100.70320955 251.61749131 106.65866749 257 113 C257.85722656 113.97582031 258.71445313 114.95164062 259.59765625 115.95703125 C273.95506392 132.58978087 286.05911979 150.81864477 298.11572266 169.1418457 C299.45675594 171.17598364 300.8357558 173.18530834 302.23974609 175.17651367 C304 178 304 178 304 181 C302.60498047 182.2199707 302.60498047 182.2199707 300.6171875 183.42578125 C299.502229 184.11462402 299.502229 184.11462402 298.36474609 184.81738281 C297.54312988 185.31077148 296.72151367 185.80416016 295.875 186.3125 C294.11416164 187.39645069 292.35376158 188.48111363 290.59375 189.56640625 C289.67078125 190.13117676 288.7478125 190.69594727 287.796875 191.27783203 C283.29121214 194.05218135 278.83428918 196.90193157 274.375 199.75 C272.5182393 200.93230759 270.66146826 202.11459893 268.8046875 203.296875 C261.64190714 207.86366643 254.4885084 212.4451022 247.33544922 217.02709961 C240.39886367 221.46911814 233.45239833 225.89528083 226.5 230.3125 C219.53539084 234.73875643 212.58986528 239.1923157 205.66845703 243.68579102 C199.4228093 247.7367652 193.14903205 251.74317173 186.875 255.75 C178.55726291 261.06468861 170.26403912 266.41468571 162 271.8125 C161.05705078 272.42794678 160.11410156 273.04339355 159.14257812 273.67749023 C154.7444593 276.54942489 150.35008081 279.42686805 145.9609375 282.3125 C144.43236882 283.31261794 142.90372759 284.31262499 141.375 285.3125 C140.694375 285.76278564 140.01375 286.21307129 139.3125 286.67700195 C135.97531122 288.85426223 132.77150535 290.69225581 129 292 C128.63201294 291.26233398 128.63201294 291.26233398 128.2565918 290.50976562 C119.43216823 272.95464361 109.23653743 257.53125617 96 243 C94.98873047 241.88044922 94.98873047 241.88044922 93.95703125 240.73828125 C66.86091617 212.25558459 29.37361457 198.07571332 -9.1953125 195.8125 C-39.41968925 195.13897628 -71.13688067 203.66426631 -94 224 C-94.75796875 224.66386719 -95.5159375 225.32773438 -96.296875 226.01171875 C-113.22549684 241.80203671 -121.60423442 265.16402378 -123.203125 287.88671875 C-123.71324039 318.36611309 -115.6630126 345.55651477 -94.56884766 367.76367188 C-61.52258544 401.67046232 -12.08781751 418.49127315 30.60620117 436.69750977 C40.12938172 440.75916653 49.61689946 444.89426186 59.08276367 449.08813477 C65.13019209 451.75977097 71.20294152 454.35989806 77.30200195 456.91137695 C114.48999577 472.47758583 151.24954461 489.50169762 186 510 C186.85932129 510.50192871 187.71864258 511.00385742 188.60400391 511.52099609 C217.97404325 528.69346142 246.25838198 548.26347996 271.2265625 571.4453125 C273.47077035 573.51251241 275.74185859 575.5203508 278.0625 577.5 C285.98348895 584.38135915 293.22132528 592.0031702 300 600 C301.17755859 601.32644531 301.17755859 601.32644531 302.37890625 602.6796875 C350.61348965 657.48192623 368.84596872 729.4946088 371 801 C371.02336426 801.72944824 371.04672852 802.45889648 371.07080078 803.21044922 C372.413279 851.68632221 362.70368934 901.49612149 341 945 C340.56010742 945.8854248 340.12021484 946.77084961 339.66699219 947.68310547 C334.39392791 958.20891037 328.95670497 968.47233884 322 978 C321.55011719 978.61681641 321.10023438 979.23363281 320.63671875 979.86914062 C304.69446712 1001.63725466 304.69446712 1001.63725466 295.67578125 1010.32421875 C293.8629262 1012.1370738 292.21931185 1014.04398962 290.5625 1016 C287.64169372 1019.3816446 284.53110928 1022.30216286 281.12109375 1025.18359375 C279.70922429 1026.39265323 278.32555774 1027.63545716 276.97265625 1028.91015625 C209.82424433 1092.04618503 107.62315403 1118.77575036 -1.75 1121.1875 C-2.73277924 1121.18689575 -3.71555847 1121.1862915 -4.7281189 1121.18566895 C-96.27770208 1121.03378553 -192.92517669 1099.55166357 -298 1030 C-298.85464844 1029.33742188 -299.70929688 1028.67484375 -300.58984375 1027.9921875 C-305.78600658 1023.90891624 -310.73970472 1019.61375532 -315.62109375 1015.16015625 C-317.78271952 1013.19730067 -319.97526262 1011.2803374 -322.1875 1009.375 C-327.94611032 1004.34488858 -333.1462079 998.93175337 -338.13671875 993.14453125 C-340.12276628 990.85870296 -342.1515076 988.61642587 -344.1875 986.375 C-348.39899409 981.71150569 -352.48839122 976.95235917 -356.55957031 972.16674805 C-359.45318427 968.77387085 -362.40285305 965.45600966 -365.4375 962.1875 C-384.406272 941.19858802 -399.48885963 916.76126591 -411 891 C-410.2879541 890.59386475 -409.5759082 890.18772949 -408.84228516 889.76928711 C-392.60954545 880.50808466 -376.39940195 871.2092014 -360.21777344 861.85888672 C-354.81329355 858.73675395 -349.40652588 855.61858796 -344 852.5 C-341.8333225 851.25001878 -339.66665583 850.00001879 -337.5 848.75 C-298.5 826.25 -298.5 826.25 -295.24902344 824.37451172 C-293.08552524 823.12628966 -290.92211357 821.87791761 -288.75878906 820.62939453 C-283.29434983 817.47594744 -277.82836355 814.32523904 -272.359375 811.1796875 C-271.26447754 810.54925537 -270.16958008 809.91882324 -269.04150391 809.26928711 C-266.86774963 808.01827395 -264.69296344 806.76905192 -262.51708984 805.52172852 C-257.17271644 802.44873422 -251.86890362 799.32680661 -246.6171875 796.09765625 C-245.60688477 795.48164551 -244.59658203 794.86563477 -243.55566406 794.23095703 C-241.64552861 793.06202542 -239.74333656 791.87998209 -237.85058594 790.68310547 C-237.0052832 790.1676416 -236.15998047 789.65217773 -235.2890625 789.12109375 C-234.18618896 788.43164673 -234.18618896 788.43164673 -233.06103516 787.72827148 C-231 787 -231 787 -228.84375 787.72192383 C-226.2733607 789.5037019 -225.03643001 791.60585182 -223.375 794.25 C-222.67890625 795.32894531 -221.9828125 796.40789063 -221.265625 797.51953125 C-220.89759766 798.09010254 -220.52957031 798.66067383 -220.15039062 799.24853516 C-200.95181331 828.47828764 -177.41150823 857.35687115 -149 878 C-147.95585938 878.76570313 -146.91171875 879.53140625 -145.8359375 880.3203125 C-116.91877481 900.91392464 -81.38009267 916.66492799 -45.77734375 920.11328125 C-44.92258957 920.19660202 -44.06783539 920.27992279 -43.18717957 920.36576843 C-33.07011271 921.27376399 -22.96363698 921.35279041 -12.8125 921.3125 C-11.82865326 921.31034485 -10.84480652 921.3081897 -9.83114624 921.30596924 C31.6616541 921.16051175 76.92828004 914.2292281 110 887 C110.84691406 886.30390625 111.69382812 885.6078125 112.56640625 884.890625 C125.58726535 873.67877075 134.8764427 860.09668585 140.375 843.875 C140.61371826 843.17173584 140.85243652 842.46847168 141.09838867 841.74389648 C144.47559056 831.10418376 145.36558 820.49026067 145.3125 809.375 C145.30512817 807.53893188 145.30512817 807.53893188 145.29760742 805.66577148 C145.10831221 790.91918904 143.27082936 777.51193031 137 764 C136.37158203 762.63875 136.37158203 762.63875 135.73046875 761.25 C111.54129739 713.28991384 49.25580506 690.04055584 3 670 C1.18208453 669.21087695 -0.63578539 668.42164898 -2.45361328 667.63232422 C-19.16691546 660.37880922 -35.90059183 653.172935 -52.65625 646.01782227 C-113.70663802 619.93400898 -172.51430316 591.79646295 -226 552 C-226.61439941 551.54399414 -227.22879883 551.08798828 -227.86181641 550.61816406 C-234.41901354 545.72945121 -240.70657665 540.6325168 -246.7265625 535.08984375 C-248.84630212 533.14128585 -251.00483469 531.25242667 -253.1875 529.375 C-309.87074511 479.86252686 -338.74337525 399.27210723 -344.58984375 326.15234375 C-345.10913924 318.28950883 -345.19948365 310.4386438 -345.1875 302.5625 C-345.18689575 301.8215509 -345.1862915 301.08060181 -345.18566895 300.31719971 C-345.08409273 254.13099181 -335.28747622 208.59792647 -315 167 C-314.66597168 166.30213379 -314.33194336 165.60426758 -313.98779297 164.88525391 C-309.37394676 155.33270672 -303.85456464 146.46561681 -298 137.625 C-297.34765381 136.63854492 -296.69530762 135.65208984 -296.02319336 134.63574219 C-291.38779238 127.75796382 -286.34171351 121.34059112 -281 115 C-280.03369491 113.83476747 -279.06752135 112.66942583 -278.1015625 111.50390625 C-255.90939275 85.14632924 -230.92841133 64.19352331 -201 47 C-200.27393555 46.57750977 -199.54787109 46.15501953 -198.79980469 45.71972656 C-180.60058154 35.17603782 -161.57778104 26.845449 -141.8125 19.6875 C-140.75869141 19.30327881 -139.70488281 18.91905762 -138.61914062 18.52319336 C-135.09909661 17.28259638 -131.5591467 16.121888 -128 15 C-127.27062225 14.76603516 -126.54124451 14.53207031 -125.7897644 14.29101562 C-109.08198151 9.03147278 -92.02997941 6.60902815 -74.71264267 4.41373062 C-72.4086327 4.12133655 -70.10526076 3.82424429 -67.8019104 3.52670288 C-45.09947508 0.61250283 -22.89718342 -1.32307511 0 0 Z " fill="#000000" transform="translate(1839,1089)"/>
<path d="M0 0 C73.59 0 147.18 0 223 0 C223.63010757 96.65751611 223.63010757 96.65751611 223.77734375 127.39990234 C223.7851153 129.01175488 223.7851153 129.01175488 223.79304385 130.6561701 C224.05562965 185.4952931 224.08140389 240.33414954 224.06369162 295.17380172 C224.06249858 298.89897094 224.06141392 302.62414018 224.06035233 306.34930944 C224.04969482 342.8879793 224.02738246 379.42663989 224.00260353 415.96530247 C223.99471473 427.62245738 223.986997 439.27961241 223.97949219 450.93676758 C223.97866406 452.22086731 223.97783593 453.50496704 223.97698271 454.82797889 C223.9631632 476.46030592 223.95348859 498.09263306 223.94658184 519.72496337 C223.94259021 531.67641148 223.9365449 543.62785095 223.92483521 555.5792942 C223.88020852 601.61112569 223.88954607 647.63310672 224.64744568 693.65984058 C224.65897181 694.36043792 224.67049794 695.06103525 224.68237334 695.7828628 C224.69937287 696.81592033 224.69937287 696.81592033 224.71671581 697.86984771 C225.06850265 719.29387925 225.16541543 740.70365676 224.625 762.125 C224.60321686 762.99431152 224.58143372 763.86362305 224.55899048 764.75927734 C222.34506229 850.46173061 207.24669291 941.33063755 147.05078125 1006.765625 C145.13614309 1008.85166886 143.28177042 1010.97682046 141.4375 1013.125 C135.43356619 1019.98075051 129.00034767 1025.97588 121.8828125 1031.66796875 C120.01608405 1033.17804583 118.17515322 1034.72082308 116.3671875 1036.30078125 C102.89527191 1048.02633741 87.55736819 1057.59464709 71.83691406 1066.00732422 C70.05249818 1066.97162977 68.28754164 1067.97167581 66.5234375 1068.97265625 C27.59014741 1090.89340053 -16.00659869 1100.28489429 -60 1105 C-61.19230225 1105.1308046 -61.19230225 1105.1308046 -62.40869141 1105.26425171 C-78.9439387 1107.03230208 -95.38014389 1107.36095749 -112 1107.3125 C-113.29948578 1107.31067719 -114.59897156 1107.30885437 -115.93783569 1107.30697632 C-135.14054371 1107.26164965 -153.97588635 1106.79879807 -173 1104 C-174.80065918 1103.75056641 -174.80065918 1103.75056641 -176.63769531 1103.49609375 C-230.71618919 1095.88139057 -284.85403419 1078.24765126 -330 1047 C-330.61375488 1046.58153809 -331.22750977 1046.16307617 -331.85986328 1045.73193359 C-340.71470668 1039.68155673 -348.92544911 1033.05024889 -357 1026 C-357.73863281 1025.36191406 -358.47726562 1024.72382813 -359.23828125 1024.06640625 C-361.17021524 1022.3899986 -363.08738447 1020.69840259 -365 1019 C-365.78890625 1018.30390625 -366.5778125 1017.6078125 -367.390625 1016.890625 C-375.02415955 1010.10005746 -382.37130283 1003.09234073 -389.015625 995.3203125 C-390.5295273 993.55011966 -392.06476703 991.79815218 -393.609375 990.0546875 C-412.84176671 968.22525658 -428.46387314 943.77618419 -442.5 918.375 C-443.02899902 917.42616943 -443.55799805 916.47733887 -444.10302734 915.49975586 C-444.59496582 914.6000708 -445.0869043 913.70038574 -445.59375 912.7734375 C-446.03396484 911.97341309 -446.47417969 911.17338867 -446.92773438 910.34912109 C-448.04668301 907.89772679 -448.57861537 905.65366381 -449 903 C-430.32906647 891.26720793 -411.53125707 879.73917292 -392.68530273 868.29003906 C-385.44092265 863.88577465 -378.21752775 859.44811037 -371 855 C-361.91264485 849.39952847 -352.80661859 843.83120519 -343.68359375 838.2890625 C-336.43984474 833.88502253 -329.21698619 829.44773949 -322 825 C-311.82141762 818.72748637 -301.61936844 812.49481579 -291.40234375 806.28515625 C-283.59240433 801.53843456 -275.79621369 796.76921936 -268 792 C-265.3172787 795.23950567 -263.00607636 798.48000366 -260.890625 802.11328125 C-260.01809082 803.59671021 -260.01809082 803.59671021 -259.12792969 805.11010742 C-258.50821289 806.16689697 -257.88849609 807.22368652 -257.25 808.3125 C-246.58820508 826.26581599 -235.40792548 843.9511195 -222 860 C-221.35804688 860.78246094 -220.71609375 861.56492187 -220.0546875 862.37109375 C-216.08817535 867.07576847 -211.72087011 871.06594157 -207 875 C-205.81664062 876.03253906 -205.81664062 876.03253906 -204.609375 877.0859375 C-175.92817795 901.55941403 -139.74039278 909.322834 -102.6484375 906.7265625 C-73.27541263 904.22466735 -46.15934911 893.11414359 -26.8125 870.3125 C9.3122793 822.62178305 -0.83732933 747.1352643 -0.89859343 690.72182488 C-0.9048987 684.43988644 -0.90531338 678.15794591 -0.90637711 671.87600484 C-0.90869652 659.0192468 -0.91551679 646.16249506 -0.92483521 633.30574036 C-0.93759844 615.60513302 -0.94351881 597.90452769 -0.94776857 580.20391649 C-0.94977391 571.88712173 -0.95210224 563.57032706 -0.95451355 555.25353241 C-0.95475456 554.42088642 -0.95499558 553.58824042 -0.95524389 552.73036273 C-0.96104379 532.94996084 -0.96999095 513.16956057 -0.97949219 493.38916016 C-0.97990583 492.52544803 -0.98031948 491.66173589 -0.98074566 490.77185067 C-0.98867742 474.22219589 -0.99689887 457.67254125 -1.00520325 441.12288666 C-1.01037178 430.81939192 -1.01547401 420.51589715 -1.02050781 410.21240234 C-1.0209224 409.3662501 -1.02133699 408.52009786 -1.02176414 407.64830463 C-1.03131371 388.12130317 -1.03985435 368.59430191 -1.04548645 349.06729889 C-1.04572744 348.23297789 -1.04596844 347.3986569 -1.04621673 346.53905344 C-1.04861036 338.17703844 -1.05083751 329.81502342 -1.05282298 321.45300831 C-1.05685225 304.62178059 -1.06280055 287.79055917 -1.07516479 270.95933533 C-1.08828947 252.91885431 -1.09686208 234.87837669 -1.09765625 216.83789062 C-1.09769739 216.11463061 -1.09773853 215.39137059 -1.09778091 214.64619361 C-1.09917515 177.95831315 -1.00177612 141.27191934 -0.77294922 104.5847168 C-0.76801875 103.79045186 -0.76308827 102.99618693 -0.75800839 102.17785336 C-0.54562862 68.11827908 -0.26392013 34.0592039 0 0 Z " fill="#000000" transform="translate(1081,1103)"/>
</svg>
